<?xml version="1.0" encoding="utf-8"?>
<!-- Generator: Adobe Illustrator 27.3.1, SVG Export Plug-In . SVG Version: 6.00 Build 0)  -->
<svg version="1.1" id="Camada_1" xmlns="http://www.w3.org/2000/svg" xmlns:xlink="http://www.w3.org/1999/xlink" x="0px" y="0px"
	 viewBox="0 0 472.8 489.4" style="enable-background:new 0 0 472.8 489.4;" xml:space="preserve">
<style type="text/css">
	.st0{fill:#E5006B;}
	.st1{fill:#46C1EE;}
	.st2{fill:#FFFFFF;}
</style>
<g id="Camada_1_00000021096836475507731720000012563545707923631530_">
</g>
<g id="Vermelho_x2F_rosa">
	<g>
		<g>
			<polygon class="st0" points="381.8,273.1 323.6,263.5 327.2,284.9 192.1,262.5 202.3,243.4 147.2,234.2 86.1,348.2 145.2,358 
				172.6,305.7 331.6,332.1 341.3,390.5 403,400.7 			"/>
			<polygon class="st0" points="330.4,388.7 345.3,479.3 407.2,489.6 392.2,398.9 			"/>
			<path class="st0" d="M257.5,140c8-15.7,15.5-31.5,22.7-47.2l-52.6-8.7l-45.2,84.5l55,9.1L257.5,140z"/>
			<polygon class="st0" points="31.9,427.4 91.8,437.3 134.4,356.2 75.3,346.4 			"/>
			<polygon class="st0" points="244.4,178.5 189.4,169.4 154.2,235.4 209.3,244.5 			"/>
			<path class="st0" d="M304.7,148.2l6.7,42.6l58.1,9.6l-15.3-97.2l-56-9.3C299.7,111.2,301.7,129.1,304.7,148.2z"/>
			<path class="st0" d="M293.6,62.5l1.3,0.2c0.9,10.8,1.9,21.8,3,33l56,9.3l-14.5-87.5L269.4,5.9l-41.9,78.2l52.6,8.7
				C284.8,82.7,289.2,72.6,293.6,62.5z"/>
			<polygon class="st0" points="330.5,265.5 388.7,275.1 376.5,201.6 318.4,192 			"/>
		</g>
	</g>
</g>
<g id="Azul">
	<g>
		<g>
			<polygon class="st1" points="356.9,269.8 298.7,260.2 302.2,281.7 167.2,259.3 177.4,240.1 122.3,231 61.1,345.5 120.2,355.3 
				147.6,302.8 306.7,329.1 316.3,387.8 378,398 			"/>
			<polygon class="st1" points="305.9,386 320.8,476.7 382.7,486.9 367.6,396.3 			"/>
			<path class="st1" d="M232.6,136.7c8-15.7,15.5-31.5,22.7-47.2l-52.6-8.7l-45.2,84.5l55,9.1L232.6,136.7z"/>
			<polygon class="st1" points="6.9,424.7 66.8,434.6 109.4,353.5 50.3,343.7 			"/>
			<polygon class="st1" points="219.5,175.6 164.5,166.4 129.3,232.1 184.4,241.3 			"/>
			<path class="st1" d="M279.7,145.2l6.9,41.5l58.1,9.6L329,101.7l-56-9.3C274.6,109.3,276.6,126.7,279.7,145.2z"/>
			<path class="st1" d="M268.6,59.8l1.3,0.2c0.9,10.8,1.9,21.8,3,33l56,9.3l-14.5-87.5L244.4,3.2l-41.9,78.2l52.6,8.7
				C259.8,79.9,264.2,69.8,268.6,59.8z"/>
			<polygon class="st1" points="305.7,261.4 363.9,271 351.7,197.5 293.6,187.8 			"/>
		</g>
	</g>
</g>
<g id="Branco">
	<polygon class="st2" points="371.7,272.8 312.4,263 316,284.6 178.3,262 188.7,242.8 132.6,233.6 70.4,348.5 130.6,358.4 
		158.5,305.7 320.6,332.3 330.4,391.2 393.3,401.5 	"/>
	<polygon class="st2" points="319.3,389.3 334.5,480.8 397.6,491.1 382.2,399.7 	"/>
	<path class="st2" d="M245,138.5c8.2-15.8,15.8-31.8,23.1-47.6l-53.6-8.8l-46.1,85.2l56.1,9.2L245,138.5z"/>
	<polygon class="st2" points="15.1,428.4 76.1,438.4 119.5,356.6 59.3,346.7 	"/>
	<polygon class="st2" points="231.6,177.6 175.6,168.5 139.7,234.7 195.9,243.9 	"/>
	<path class="st2" d="M293,147l7,41.8l59.2,9.7l-16-95.4l-57.1-9.4C287.8,110.8,289.9,128.3,293,147z"/>
	<path class="st2" d="M281.7,60.3l1.4,0.2c1,10.9,1.9,22,3,33.3l57.1,9.4l-14.8-88.3L257.2,3.2l-42.7,78.9l53.6,8.8
		C272.8,80.6,277.3,70.4,281.7,60.3z"/>
	<polygon class="st2" points="319.5,264.2 378.8,273.9 366.4,199.7 307.2,190 	"/>
</g>
<g id="Retangulos">
	
		<rect x="206.9" y="208.9" transform="matrix(0.1634 -0.9866 0.9866 0.1634 -49.8475 396.3653)" class="st2" width="3.8" height="37.3"/>
	
		<rect x="148.3" y="160.8" transform="matrix(0.1634 -0.9866 0.9866 0.1634 -63.7083 308.802)" class="st2" width="3.8" height="62.4"/>
	
		<rect x="385.6" y="312.2" transform="matrix(0.1634 -0.9866 0.9866 0.1634 -5.3448 661.7269)" class="st2" width="3.8" height="43.7"/>
	
		<rect x="297" y="232.5" transform="matrix(0.1634 -0.9866 0.9866 0.1634 -4.3379 510.6328)" class="st2" width="3.8" height="50.8"/>
	
		<rect x="312.2" y="333.5" transform="matrix(0.1634 -0.9866 0.9866 0.1634 -91.2986 610.0917)" class="st2" width="3.8" height="50.8"/>
	
		<rect x="336.3" y="435.2" transform="matrix(0.1634 -0.9866 0.9866 0.1634 -171.493 719.0113)" class="st2" width="3.8" height="50.8"/>
	
		<rect x="55.9" y="327.8" transform="matrix(0.1634 -0.9866 0.9866 0.1634 -300.0653 352.4384)" class="st2" width="3.8" height="50.8"/>
	
		<rect x="114.5" y="396.6" transform="matrix(0.1634 -0.9866 0.9866 0.1634 -318.8933 467.8991)" class="st2" width="3.8" height="50.8"/>
	
		<rect x="394.4" y="404.8" transform="matrix(0.1634 -0.9866 0.9866 0.1634 -92.8464 750.9097)" class="st2" width="3.8" height="50.8"/>
	
		<rect x="412.7" y="449.8" transform="matrix(0.1634 -0.9866 0.9866 0.1634 -121.9456 806.5772)" class="st2" width="3.8" height="50.8"/>
	
		<rect x="343.2" y="18.2" transform="matrix(0.1634 -0.9866 0.9866 0.1634 250.5931 372.7758)" class="st2" width="3.8" height="41"/>
	
		<rect x="237.1" y="-1.3" transform="matrix(0.1634 -0.9866 0.9866 0.1634 181.0345 251.7711)" class="st2" width="3.8" height="41"/>
	
		<rect x="296.3" y="155" transform="matrix(0.1634 -0.9866 0.9866 0.1634 75.3401 441.7868)" class="st2" width="3.8" height="42.9"/>
	
		<rect x="391.5" y="211" transform="matrix(0.1634 -0.9866 0.9866 0.1634 99.768 582.6111)" class="st2" width="3.8" height="42.9"/>
	
		<rect x="354.4" y="92.4" transform="matrix(0.1634 -0.9866 0.9866 0.1634 185.7349 446.6971)" class="st2" width="3.8" height="42.9"/>
	
		<rect x="355.2" y="5.8" transform="matrix(0.1634 -0.9866 0.9866 0.1634 271.8659 375.0782)" class="st0" width="3.8" height="42.9"/>
	
		<rect x="404.7" y="382.2" transform="matrix(0.1634 -0.9866 0.9866 0.1634 -58.0719 738.7531)" class="st0" width="3.8" height="42.9"/>
	
		<rect x="398.6" y="234.3" transform="matrix(0.1634 -0.9866 0.9866 0.1634 82.6522 609.0673)" class="st0" width="3.8" height="42.9"/>
	
		<rect x="373.6" y="131" transform="matrix(0.1634 -0.9866 0.9866 0.1634 163.7096 498.0251)" class="st0" width="3.8" height="42.9"/>
	
		<rect x="361.9" y="284.4" transform="matrix(0.1634 -0.9866 0.9866 0.1634 2.6418 614.8241)" class="st0" width="3.8" height="42.9"/>
	
		<rect x="319.6" y="46" transform="matrix(0.1634 -0.9866 0.9866 0.1634 202.4291 373.5829)" class="st0" width="3.8" height="42.9"/>
	
		<rect x="133.7" y="315.1" transform="matrix(0.1634 -0.9866 0.9866 0.1634 -218.5238 415.3289)" class="st0" width="3.8" height="42.9"/>
	
		<rect x="219.6" y="237.2" transform="matrix(0.1634 -0.9866 0.9866 0.1634 -69.8577 434.9322)" class="st0" width="3.8" height="42.9"/>
	
		<rect x="239.3" y="96.8" transform="matrix(0.1634 -0.9866 0.9866 0.1634 85.1083 336.8603)" class="st0" width="3.8" height="42.9"/>
	
		<rect x="209.7" y="169.4" transform="matrix(0.1634 -0.9866 0.9866 0.1634 -11.2498 368.4389)" class="st0" width="3.8" height="42.9"/>
	<rect x="325" y="260" transform="matrix(0.1634 -0.9866 0.9866 0.1634 -4.2008 557.9723)" class="st1" width="3.8" height="42.9"/>
	
		<rect x="291.9" y="370.8" transform="matrix(0.1634 -0.9866 0.9866 0.1634 -141.2106 617.9373)" class="st1" width="3.8" height="42.9"/>
	
		<rect x="338.8" y="423.8" transform="matrix(0.1634 -0.9866 0.9866 0.1634 -154.2335 708.6826)" class="st1" width="3.8" height="42.9"/>
	
		<rect x="82.3" y="258.5" transform="matrix(0.1634 -0.9866 0.9866 0.1634 -205.7188 317.3061)" class="st1" width="3.8" height="42.9"/>
	
		<rect x="46.7" y="387.4" transform="matrix(0.1634 -0.9866 0.9866 0.1634 -362.7032 389.9187)" class="st1" width="3.8" height="42.9"/>
	
		<rect x="164.9" y="96.5" transform="matrix(0.1634 -0.9866 0.9866 0.1634 23.2137 263.1946)" class="st1" width="3.8" height="42.9"/>
	
		<rect x="324.4" y="191.5" transform="matrix(0.1634 -0.9866 0.9866 0.1634 62.9417 500.0835)" class="st1" width="3.8" height="42.9"/>
	
		<rect x="244.8" y="20.2" transform="matrix(0.1634 -0.9866 0.9866 0.1634 165.2816 278.217)" class="st1" width="3.8" height="42.9"/>
	
		<rect x="155.4" y="205.1" transform="matrix(0.1634 -0.9866 0.9866 0.1634 -91.8915 344.73)" class="st1" width="3.8" height="42.9"/>
	
		<rect x="206.5" y="47.4" transform="matrix(0.1634 -0.9866 0.9866 0.1634 110.5243 259.2596)" class="st2" width="3.3" height="34"/>
	
		<rect x="123" y="220.7" transform="matrix(0.1634 -0.9866 0.9866 0.1634 -138.2998 329.0642)" class="st2" width="3.8" height="50.8"/>
</g>
</svg>
