<?xml version="1.0" encoding="utf-8"?>
<!-- Generator: Adobe Illustrator 27.3.1, SVG Export Plug-In . SVG Version: 6.00 Build 0)  -->
<svg version="1.1" id="Camada_1" xmlns="http://www.w3.org/2000/svg" xmlns:xlink="http://www.w3.org/1999/xlink" x="0px" y="0px"
	 viewBox="0 0 841.89 595.28" style="enable-background:new 0 0 841.89 595.28;" xml:space="preserve">
<style type="text/css">
	.st0{fill:url(#SVGID_1_);stroke:#000000;stroke-miterlimit:10;}
	.st1{fill:url(#SVGID_00000154407295252776313320000000804873613357263017_);stroke:#000000;stroke-miterlimit:10;}
	.st2{fill:url(#SVGID_00000056425026558997734770000016135158356360920209_);stroke:#000000;stroke-miterlimit:10;}
	.st3{fill:url(#SVGID_00000049935760490465270540000004287604342081333670_);stroke:#000000;stroke-miterlimit:10;}
</style>
<g>
	<linearGradient id="SVGID_1_" gradientUnits="userSpaceOnUse" x1="477.8404" y1="93.8584" x2="233.7308" y2="501.8109">
		<stop  offset="0" style="stop-color:#662483"/>
		<stop  offset="1" style="stop-color:#010202"/>
	</linearGradient>
	<path class="st0" d="M411.09,188.31c0-1.74,1.13-3.15,2.52-3.15h39.74c11.75,0,21.93,8.33,26.99,20.52l72.87-15.52
		c-12.54-42.75-48.83-73.66-91.64-73.66H397.4h-56.11h-5.71c-4.41,0-7.99,3.96-7.99,8.84v6.32v106.55l83.5-17.78V188.31z"/>
	
		<linearGradient id="SVGID_00000158742354267907880320000003876638670425822395_" gradientUnits="userSpaceOnUse" x1="507.9797" y1="111.893" x2="263.8701" y2="519.8456">
		<stop  offset="0" style="stop-color:#29235C"/>
		<stop  offset="1" style="stop-color:#FFFFFF"/>
	</linearGradient>
	<path style="fill:url(#SVGID_00000158742354267907880320000003876638670425822395_);stroke:#000000;stroke-miterlimit:10;" d="
		M464.89,205.68c2.17,5.22,3.4,11.14,3.4,17.43v0c0,20.96-13.6,37.94-30.39,37.94h-39.74c-1.39,0-2.52-1.41-2.52-3.15v-37.48
		l-83.5,17.78v60.11l83.5,40.15v-8.76h50.47c53.2,0,96.34-47.73,96.34-106.6v0c0-11.5-1.65-22.57-4.7-32.95L464.89,205.68z"/>
	
		<linearGradient id="SVGID_00000123424442140690577710000010470881375149776001_" gradientUnits="userSpaceOnUse" x1="510.6229" y1="113.4746" x2="266.5133" y2="521.4272">
		<stop  offset="0" style="stop-color:#FFFFFF"/>
		<stop  offset="1" style="stop-color:#F39200"/>
	</linearGradient>
	
		<polygon style="fill:url(#SVGID_00000123424442140690577710000010470881375149776001_);stroke:#000000;stroke-miterlimit:10;" points="
		327.6,320.87 327.6,427.4 411.09,400.83 411.09,338.47 327.6,298.32 	"/>
	
		<linearGradient id="SVGID_00000160868946397038439790000001525546821697079190_" gradientUnits="userSpaceOnUse" x1="551.5181" y1="137.9454" x2="307.4085" y2="545.898">
		<stop  offset="0" style="stop-color:#FFFFFF"/>
		<stop  offset="1" style="stop-color:#E94E1B"/>
	</linearGradient>
	<path style="fill:url(#SVGID_00000160868946397038439790000001525546821697079190_);stroke:#000000;stroke-miterlimit:10;" d="
		M312.15,504.44c0,8.37,6.13,15.15,13.69,15.15h56.11c7.56,0,13.7-6.78,13.7-15.15V400.83l-83.5,26.57V504.44z"/>
</g>
</svg>
