<?xml version="1.0" encoding="utf-8"?>
<!-- Generator: Adobe Illustrator 27.3.1, SVG Export Plug-In . SVG Version: 6.00 Build 0)  -->
<svg version="1.1" id="Camada_1" xmlns="http://www.w3.org/2000/svg" xmlns:xlink="http://www.w3.org/1999/xlink" x="0px" y="0px"
	 viewBox="0 0 595.28 618.84" style="enable-background:new 0 0 595.28 618.84;" xml:space="preserve">
<style type="text/css">
	.st0{fill:url(#SVGID_1_);}
	.st1{fill:#36A9E1;}
	.st2{fill:#E30613;}
	.st3{fill:#FFFFFF;}
</style>
<radialGradient id="SVGID_1_" cx="297.6378" cy="309.4203" r="329.4914" gradientUnits="userSpaceOnUse">
	<stop  offset="0" style="stop-color:#504F4E"/>
	<stop  offset="0.9057" style="stop-color:#000000"/>
</radialGradient>
<rect class="st0" width="595.28" height="618.84"/>
<g>
	<path class="st1" d="M171.71,365.23l-57.44,109.05l61.63,8.23c14.04,1.87,20.37,8.02,18.98,18.41
		c-1.46,10.92-9.21,15.44-23.25,13.57l-117.8-15.73c-14.04-1.88-20.33-8.27-18.88-19.19c1.39-10.4,9.1-14.66,23.15-12.79l24.18,3.23
		l189.74-356.58l-93.61-12.5c-14.04-1.87-20.33-8.27-18.87-19.19c1.39-10.4,9.1-14.66,23.15-12.79l159.14,21.25l99.31,427.73
		l28.86,3.85c14.04,1.87,20.37,8.02,18.98,18.41c-1.46,10.92-9.21,15.44-23.25,13.57l-121.7-16.25
		c-14.04-1.87-20.33-8.27-18.87-19.19c1.39-10.4,9.1-14.67,23.15-12.79l59.29,7.92l-28.37-120.51L171.71,365.23 M188.46,334.91
		l183.32,24.48l-56.85-240.24l-11.7-1.56L188.46,334.91"/>
	<path class="st2" d="M212.99,370.74l-57.44,109.05l61.63,8.23c14.04,1.87,20.37,8.02,18.98,18.41
		c-1.46,10.92-9.21,15.44-23.25,13.57l-117.8-15.73c-14.04-1.88-20.33-8.27-18.88-19.19c1.39-10.4,9.1-14.66,23.15-12.79l24.18,3.23
		l189.74-356.58l-93.61-12.5c-14.04-1.87-20.33-8.27-18.87-19.19c1.39-10.4,9.1-14.66,23.15-12.79L383.11,95.7l99.31,427.73
		l28.86,3.85c14.04,1.87,20.37,8.02,18.98,18.41c-1.46,10.92-9.21,15.44-23.25,13.57l-121.7-16.25
		c-14.04-1.87-20.33-8.27-18.87-19.19c1.39-10.4,9.1-14.67,23.15-12.79l59.29,7.92L420.5,398.45L212.99,370.74 M229.74,340.42
		l183.32,24.48l-56.85-240.24l-11.7-1.56L229.74,340.42"/>
	<path class="st3" d="M193.48,368.14l-57.44,109.05l61.63,8.23c14.04,1.87,20.37,8.02,18.98,18.41
		c-1.46,10.92-9.21,15.44-23.25,13.57l-117.8-15.73c-14.04-1.88-20.33-8.27-18.88-19.19c1.39-10.4,9.1-14.66,23.15-12.79l24.18,3.23
		L293.8,116.33l-93.61-12.5c-14.04-1.87-20.33-8.27-18.87-19.19c1.39-10.4,9.1-14.66,23.15-12.79L363.6,93.1l99.31,427.73
		l28.86,3.85c14.04,1.87,20.37,8.02,18.98,18.41c-1.46,10.92-9.21,15.44-23.25,13.57l-121.7-16.25
		c-14.04-1.87-20.33-8.27-18.87-19.19c1.39-10.4,9.1-14.67,23.15-12.79l59.29,7.92l-28.37-120.51L193.48,368.14 M210.24,337.82
		l183.32,24.48l-56.85-240.24l-11.7-1.56L210.24,337.82"/>
</g>
</svg>
